<svg width="25" height="25" viewBox="0 0 25 25" fill="none" xmlns="http://www.w3.org/2000/svg">
<g clip-path="url(#clip0_40_149)">
<path d="M17.0938 13.5208H19.6458V15.5625H14.5417V9.43748H21.6875C21.6875 8.31456 20.7688 7.39581 19.6458 7.39581H14.5417C13.4187 7.39581 12.5 8.31456 12.5 9.43748V15.5625C12.5 16.6854 13.4187 17.6041 14.5417 17.6041H19.6458C20.7688 17.6041 21.6875 16.6854 21.6875 15.5625V11.4791H17.0938V13.5208Z" fill="white" fill-opacity="0.87"/>
<path d="M3.3125 13.5208H8.41667V15.5625H3.3125V17.6041H8.41667C9.53958 17.6041 10.4583 16.6854 10.4583 15.5625V13.5208C10.4583 12.3979 9.53958 11.4791 8.41667 11.4791H5.35417V9.43748H10.4583V7.39581H3.3125V13.5208Z" fill="white" fill-opacity="0.87"/>
</g>
<defs>
<clipPath id="clip0_40_149">
<rect width="24.5" height="24.5" fill="white" transform="translate(0.25 0.25)"/>
</clipPath>
</defs>
</svg>
