<svg width="155" height="42" viewBox="0 0 155 42" fill="none" xmlns="http://www.w3.org/2000/svg">
<path d="M119.662 38.9944V15.1628C119.662 13.299 119.18 12.0425 118.259 11.121C117.274 10.1368 115.829 9.5923 114.111 9.5923C113.985 9.5923 113.818 9.5923 113.692 9.61324V33.4449C113.692 35.2877 114.174 36.5442 115.096 37.4657C116.059 38.4499 117.525 38.9944 119.243 38.9944C119.348 39.0154 119.515 39.0154 119.662 38.9944ZM120.207 3.8124C120.207 1.86482 118.615 0.273254 116.667 0.273254C114.718 0.273254 113.126 1.86482 113.126 3.8124C113.126 5.78092 114.718 7.37248 116.667 7.37248C118.615 7.37248 120.207 5.78092 120.207 3.8124ZM102.255 27.4346V33.4449C102.255 35.2877 102.737 36.5442 103.658 37.4657C104.622 38.4499 106.088 38.9944 107.806 38.9944C107.953 38.9944 108.099 38.9944 108.246 38.9735V26.1572C108.246 20.6495 106.738 16.9428 104.077 14.0529C101.312 11.1001 97.2066 9.38288 92.4306 9.38288C83.2767 9.38288 76.9297 16.0842 76.9297 24.8169C76.9297 33.382 82.7949 39.1201 90.4197 39.1201C96.2849 39.1201 99.825 35.6228 99.825 31.5392C99.825 30.0104 99.3432 28.377 98.2958 26.8064C97.458 31.2041 95.0071 33.6333 91.09 33.6333C86.9005 33.6333 83.2138 30.4502 83.2138 24.6703C83.2138 18.9742 86.9005 15.1 92.4306 15.1C95.1957 15.1 97.4161 16.0633 99.1128 17.7177C101.103 19.6862 102.255 22.6808 102.255 27.4346ZM149.051 31.1203C148.988 31.1203 148.925 31.0785 148.862 31.0156C144.568 25.4242 136.671 15.1 134.954 12.8383C133.152 10.4719 131.728 9.69701 129.842 9.69701C128.46 9.69701 127.35 10.1996 126.575 11.0163C125.716 11.9378 125.276 13.3618 125.276 14.9743V33.4449C125.276 35.2877 125.758 36.5442 126.679 37.4657C127.664 38.4499 129.046 38.9944 130.722 38.9944C130.848 38.9944 130.953 38.9944 131.057 38.9735V17.8224C131.057 17.6758 131.12 17.592 131.225 17.592C131.309 17.592 131.351 17.6339 131.413 17.7177C133.927 21.0055 143.5 33.5077 145.343 35.8741C147.166 38.2196 148.569 39.0154 150.434 39.0154C151.816 39.0154 152.947 38.5128 153.701 37.696C154.56 36.7746 155 35.3715 155 33.7381V15.2675C155 13.4246 154.518 12.1472 153.597 11.2258C152.612 10.2415 151.23 9.71795 149.533 9.71795C149.407 9.71795 149.323 9.71795 149.198 9.71795V30.89C149.219 31.0366 149.156 31.1203 149.051 31.1203ZM54.7465 33.3402C54.5161 33.3402 54.3695 33.2564 54.3695 33.1098C54.3695 33.026 54.4323 32.9213 54.579 32.8166C56.4223 31.3298 68.5927 21.5081 70.457 19.9794C73.6828 17.3826 74.3741 16.1052 74.3741 14.2623C74.3741 13.1105 73.8295 12.0006 73.0335 11.3305C72.049 10.4928 70.6036 10.053 68.2366 10.053H47.4778C47.4778 10.1577 47.4778 10.2624 47.4778 10.3881C47.4778 11.4561 47.7083 12.6288 48.2529 13.4037C49.0908 14.5974 50.6828 15.3094 52.8194 15.3094H66.4351C66.6865 15.3094 66.8121 15.3722 66.8121 15.4979C66.8121 15.6026 66.7493 15.6654 66.6027 15.791C64.6755 17.3617 53.4269 26.4294 50.6199 28.6702C47.3731 31.2669 46.7447 32.5653 46.7447 34.4082C46.7447 35.56 47.2893 36.6699 48.1063 37.34C49.0908 38.1777 50.5571 38.6384 52.9241 38.6384H74.6255C74.6255 38.5546 74.6255 38.4918 74.6255 38.429C74.6255 36.8793 74.1856 35.56 73.2639 34.7223C72.1956 33.7381 70.834 33.382 68.2575 33.382H54.7465V33.3402Z" fill="white"/>
<path d="M33.108 15.7282C33.108 12.2728 30.4477 9.65513 26.6562 9.94831C18.6125 10.5556 17.5651 19.7281 22.8019 20.3144C28.2901 20.9218 30.2382 15.1418 30.3429 14.8068C30.3639 15.2047 30.6362 23.1625 22.5087 23.1625C18.2773 23.1625 16.1198 19.7071 16.1198 16.7125C16.1198 12.2728 20.4349 7.87509 26.5305 7.62379C29.9449 7.49814 32.1863 8.29392 33.9459 10.053C37.5279 13.634 36.5014 20.3563 33.5898 23.6861C28.9814 28.9634 22.5087 30.3036 16.4759 27.5812C10.464 24.9007 8.28549 17.0685 11.9513 10.5347C13.2919 8.12639 18.1726 2.76532 26.5724 2.76532C37.2346 2.76532 42.639 10.3253 41.6545 19.1836C40.9004 25.9896 36.7737 30.9109 34.8675 32.9842C26.4468 42.1147 14.0879 43.9367 6.29551 39.1829C2.02227 36.5652 -0.470453 31.8742 0.074175 26.5551C0.555962 30.3874 2.46216 33.7171 5.64614 35.8741C12.0141 40.209 22.6553 40.8163 30.3639 32.3559C22.6344 38.1358 13.5851 38.052 7.42666 34.0312C1.7709 30.3455 0.199859 22.974 2.98584 15.7073C1.60332 22.1992 3.82373 28.2095 8.74633 31.3507C16.3921 36.2301 27.557 33.4239 34.5743 25.5499C36.9623 22.8693 38.3448 19.2464 38.3029 15.9376C38.2191 10.43 34.3858 5.48774 26.6353 5.48774C18.6753 5.48774 13.2081 11.6236 13.2081 16.7544C13.2081 22.4296 17.1043 25.6755 22.1945 25.6755C27.2218 25.6755 33.108 22.5133 33.108 15.7282Z" fill="white"/>
</svg>
