<svg width="25" height="25" viewBox="0 0 25 25" fill="none" xmlns="http://www.w3.org/2000/svg">
<g clip-path="url(#clip0_40_174)">
<g clip-path="url(#clip1_40_174)">
<path d="M19.6364 8.0762C19.6364 5.9908 18.0785 4.42062 15.8609 4.59236C11.1474 4.96855 10.5433 10.4805 13.6115 10.8322C16.6796 11.1839 17.9672 7.70819 18.0308 7.51192C18.0308 7.74908 18.2057 12.5496 13.4525 12.5496C10.9805 12.5496 9.70875 10.4724 9.70875 8.66502C9.70875 5.9908 12.2364 3.33294 15.7973 3.19391C17.7924 3.11213 19.1118 3.60281 20.1372 4.65778C22.2356 6.81679 21.6315 10.8649 19.9305 12.8685C17.236 16.0416 13.4445 16.8512 9.90747 15.2238C6.37834 13.5964 5.10659 8.87765 7.25268 4.92766C8.03957 3.47197 10.901 0.241638 15.8132 0.241638C22.0527 0.241638 25.2162 4.78863 24.6439 10.1371C24.2068 14.2343 21.7904 17.2029 20.6697 18.4541C15.7417 23.958 8.50853 25.062 3.94611 22.1915C1.42644 20.6213 -0.0281301 17.7917 0.297757 14.5941C0.575954 16.9085 1.69669 18.9039 3.55663 20.2124C7.28447 22.8294 13.5161 23.1892 18.0229 18.0861C13.4922 21.5618 8.20649 21.5127 4.58994 19.092C1.27542 16.8758 0.369294 12.4433 1.99078 8.05167C1.18004 11.9608 2.48359 15.5918 5.36094 17.481C9.84388 20.4251 16.3696 18.7322 20.4869 13.9889C21.8858 12.3697 22.6966 10.1943 22.6648 8.19888C22.625 4.87859 20.3756 1.90178 15.837 1.90178C11.2985 1.90178 7.98393 5.60644 7.98393 8.68956C7.98393 12.108 10.2651 14.0625 13.2458 14.0625C16.2265 14.0625 19.6444 12.1489 19.6444 8.06803L19.6364 8.0762Z" fill="white" fill-opacity="0.87"/>
</g>
</g>
<defs>
<clipPath id="clip0_40_174">
<rect width="24.5" height="24.5" fill="white" transform="translate(0.25 0.25)"/>
</clipPath>
<clipPath id="clip1_40_174">
<rect width="24.4575" height="23.4792" fill="white" transform="translate(0.25 0.25)"/>
</clipPath>
</defs>
</svg>
